<svg width="25" height="26" viewBox="0 0 25 26" fill="none" xmlns="http://www.w3.org/2000/svg">
<path d="M15.6667 21.3333C16.0622 21.3333 16.4489 21.4506 16.7778 21.6704C17.1067 21.8902 17.3631 22.2025 17.5144 22.568C17.6658 22.9334 17.7054 23.3356 17.6282 23.7235C17.5511 24.1115 17.3606 24.4678 17.0809 24.7475C16.8012 25.0273 16.4448 25.2177 16.0569 25.2949C15.6689 25.3721 15.2668 25.3325 14.9013 25.1811C14.5359 25.0297 14.2235 24.7734 14.0037 24.4445C13.784 24.1156 13.6667 23.7289 13.6667 23.3333C13.6667 22.8029 13.8774 22.2942 14.2525 21.9191C14.6275 21.544 15.1362 21.3333 15.6667 21.3333ZM1.66668 17.3333H17.6667C18.0203 17.3333 18.3594 17.1929 18.6095 16.9428C18.8595 16.6928 19 16.3536 19 16C19 15.6464 18.8595 15.3072 18.6095 15.0572C18.3594 14.8071 18.0203 14.6667 17.6667 14.6667H6.34506C5.4765 14.6639 4.63223 14.3797 3.93879 13.8567C3.24534 13.3336 2.74006 12.6 2.49868 11.7656L0.384769 4.36653C0.328058 4.1681 0.318184 3.9592 0.355921 3.7563C0.393658 3.5534 0.477978 3.36202 0.602242 3.19724C0.726505 3.03246 0.88732 2.89878 1.07203 2.80671C1.25674 2.71464 1.46029 2.6667 1.66668 2.66667H18.0146C18.2906 1.88981 18.7994 1.21695 19.4717 0.739752C20.144 0.262557 20.9471 0.004241 21.7715 0H23C23.3536 0 23.6928 0.140476 23.9428 0.390524C24.1929 0.640573 24.3333 0.979711 24.3333 1.33333C24.3333 1.68696 24.1929 2.02609 23.9428 2.27614C23.6928 2.52619 23.3536 2.66667 23 2.66667H21.7715C21.482 2.66768 21.2007 2.76242 20.9696 2.93671C20.7385 3.11099 20.5701 3.35545 20.4896 3.63347L20.2822 4.35979L20.2819 4.36653L18.0944 12.0228C19.1123 12.1323 20.0495 12.6279 20.713 13.4076C21.3765 14.1873 21.7157 15.1918 21.6609 16.2141C21.6061 17.2364 21.1614 18.1988 20.4183 18.9031C19.6753 19.6074 18.6905 20 17.6667 20H1.66668C1.31306 20 0.973915 19.8595 0.723866 19.6095C0.473818 19.3594 0.333344 19.0203 0.333344 18.6667C0.333344 18.313 0.473818 17.9739 0.723866 17.7239C0.973915 17.4738 1.31306 17.3333 1.66668 17.3333ZM3.43425 5.33333L5.06252 11.0325C5.14295 11.3108 5.31142 11.5555 5.54265 11.7299C5.77388 11.9043 6.05542 11.9991 6.34506 12H15.3275L15.6674 10.8104L17.2315 5.33333H3.43425ZM5.00001 21.3333C5.39557 21.3333 5.78225 21.4506 6.11115 21.6704C6.44005 21.8902 6.69639 22.2025 6.84777 22.568C6.99914 22.9334 7.03875 23.3356 6.96158 23.7235C6.88441 24.1115 6.69393 24.4678 6.41422 24.7475C6.13452 25.0273 5.77815 25.2177 5.39019 25.2949C5.00223 25.3721 4.6001 25.3325 4.23464 25.1811C3.86919 25.0297 3.55683 24.7734 3.33707 24.4445C3.11731 24.1156 3.00001 23.7289 3.00001 23.3333C3.00001 22.8029 3.21072 22.2942 3.5858 21.9191C3.96087 21.544 4.46958 21.3333 5.00001 21.3333Z" fill="#313039"/>
</svg>
