<svg width="35" height="28" viewBox="0 0 35 28" fill="none" xmlns="http://www.w3.org/2000/svg">
<path d="M34.8438 3.69935C33.5426 4.24944 32.1659 4.61186 30.7571 4.77513C32.2376 3.93165 33.351 2.59163 33.8884 1.00638C32.4887 1.80274 30.9599 2.3615 29.3675 2.65873C28.6969 1.97496 27.8904 1.431 26.9971 1.05992C26.1038 0.688843 25.1422 0.498387 24.1708 0.500134C20.2381 0.500134 17.0556 3.5517 17.0556 7.31341C17.0528 7.83665 17.1144 8.35834 17.2391 8.86732C14.4191 8.73869 11.6577 8.03875 9.13163 6.81227C6.60555 5.58579 4.37041 3.85978 2.5692 1.74466C1.93729 2.78116 1.6031 3.96376 1.60156 5.16888C1.60156 7.53138 2.86838 9.61966 4.78125 10.8431C3.64793 10.8169 2.53783 10.5251 1.5452 9.99232V10.0767C1.5452 13.3814 4.00223 16.1306 7.25418 16.7564C6.64266 16.915 6.01249 16.9954 5.37961 16.9954C4.93054 16.9962 4.48248 16.9538 4.04197 16.8689C4.94602 19.5759 7.57721 21.5447 10.694 21.6009C8.16139 23.5 5.05197 24.5264 1.85449 24.5189C1.28693 24.5181 0.719897 24.4852 0.15625 24.4204C3.40906 26.4414 7.19019 27.5104 11.0496 27.5001C24.1557 27.5001 31.3157 17.115 31.3157 8.10795C31.3157 7.81263 31.3078 7.51732 31.2933 7.22904C32.6831 6.26721 33.8854 5.07193 34.8438 3.69935Z" fill="#E47E7A"/>
</svg>
