<svg width="33" height="32" viewBox="0 0 33 32" fill="none" xmlns="http://www.w3.org/2000/svg">
<path fill-rule="evenodd" clip-rule="evenodd" d="M27.9707 4.82729C26.4741 3.37047 24.6962 2.21604 22.7392 1.43046C20.7823 0.644889 18.6849 0.243686 16.5679 0.24995C7.68359 0.24995 0.45125 7.25167 0.447637 15.8593C0.443706 18.6002 1.18626 21.2931 2.59971 23.664L0.3125 31.75L8.85791 29.5794C11.2233 30.8262 13.8712 31.4788 16.5614 31.4778H16.5679C25.4515 31.4778 32.6832 24.4754 32.6875 15.8685C32.6929 13.8157 32.2786 11.7825 31.4689 9.88694C30.6591 7.99142 29.47 6.27151 27.9707 4.82729ZM16.5679 28.8432H16.5621C14.1639 28.8439 11.8093 28.2195 9.74316 27.0348L9.25393 26.7535L4.18305 28.0417L5.53658 23.2541L5.21789 22.7619C3.87692 20.6962 3.16645 18.3025 3.16916 15.8593C3.16916 8.70643 9.18238 2.88667 16.573 2.88667C20.1183 2.88051 23.521 4.24478 26.0326 6.67941C28.5442 9.11404 29.9591 12.4196 29.966 15.8692C29.9631 23.0228 23.9528 28.8432 16.5679 28.8432ZM23.9166 19.1267C23.5141 18.9313 21.5319 17.9877 21.1647 17.8576C20.7976 17.7275 20.5266 17.6621 20.2585 18.0531C19.9904 18.444 19.2179 19.3187 18.983 19.5824C18.7482 19.846 18.5133 19.8749 18.1108 19.6794C17.7083 19.4839 16.4097 19.0726 14.8711 17.7437C13.6737 16.7094 12.8658 15.4325 12.6309 15.0423C12.396 14.6521 12.6056 14.4404 12.8072 14.2464C12.9886 14.0713 13.2097 13.7907 13.4114 13.5629C13.613 13.3351 13.6802 13.172 13.8139 12.9118C13.9476 12.6517 13.8811 12.4239 13.7806 12.2291C13.6802 12.0343 12.8744 10.1141 12.5391 9.33292C12.2118 8.57214 11.8801 8.6755 11.6329 8.66354C11.398 8.65229 11.1271 8.64948 10.8604 8.64948C10.6565 8.65464 10.456 8.70064 10.2712 8.7846C10.0864 8.86856 9.92144 8.98867 9.78652 9.13745C9.41725 9.52839 8.37662 10.4734 8.37662 12.3915C8.37662 14.3096 9.82193 16.1659 10.0214 16.426C10.2208 16.6862 12.8614 20.6258 16.9018 22.3154C17.6521 22.628 18.4186 22.9022 19.1984 23.1367C20.1631 23.4334 21.0412 23.3919 21.7349 23.2914C22.5089 23.1796 24.1197 22.3478 24.4543 21.4365C24.7889 20.5253 24.7896 19.7448 24.6891 19.5824C24.5887 19.42 24.3199 19.3215 23.9166 19.1267Z" fill="#E47E7A"/>
</svg>
